<?xml version="1.0" encoding="UTF-8" standalone="no"?>
<!DOCTYPE svg PUBLIC "-//W3C//DTD SVG 1.1//EN"
 "http://www.w3.org/Graphics/SVG/1.1/DTD/svg11.dtd">
<!-- Generated by graphviz version 2.38.0 (20140413.2041)
 -->
<!-- Title: H Pages: 1 -->
<svg width="462px" height="239px"
 viewBox="0.00 0.00 462.09 239.00" xmlns="http://www.w3.org/2000/svg" xmlns:xlink="http://www.w3.org/1999/xlink">
<g id="graph0" class="graph" transform="scale(0.7500187504687618 0.7500187504687618) rotate(0) translate(4 235)">
<title>H</title>
<polygon fill="white" stroke="none" points="-4,4 -4,-235 458.094,-235 458.094,4 -4,4"/>
<!-- s1 -->
<g id="node1" class="node"><title>s1</title>
<polygon fill="none" stroke="black" points="239,-210 239,-227 375,-227 375,-210 239,-210"/>
<text text-anchor="start" x="289.5" y="-217" font-family="Times New Roman,serif" text-decoration="underline" font-size="10.00">s1 :Store</text>
<polygon fill="none" stroke="black" points="239,-193 239,-210 375,-210 375,-193 239,-193"/>
<text text-anchor="start" x="242" y="-199" font-family="Times New Roman,serif" font-size="10.00"> &#160;wallTime = &quot;Wednesday 09:30&quot;</text>
</g>
<!-- l2 -->
<g id="node2" class="node"><title>l2</title>
<polygon fill="none" stroke="black" points="8,-126.5 8,-143.5 152,-143.5 152,-126.5 8,-126.5"/>
<text text-anchor="start" x="63" y="-133.5" font-family="Times New Roman,serif" text-decoration="underline" font-size="10.00">l2 :Label</text>
<polygon fill="none" stroke="black" points="8,-109.5 8,-126.5 152,-126.5 152,-109.5 8,-109.5"/>
<text text-anchor="start" x="11" y="-115.5" font-family="Times New Roman,serif" font-size="10.00"> &#160;text = &quot;Great new Hoodies 24€&quot;</text>
</g>
<!-- s1&#45;&gt;l2 -->
<g id="edge1" class="edge"><title>s1&#45;&gt;l2</title>
<path fill="none" stroke="black" d="M251.179,-188.958C216.129,-176.374 171.083,-160.202 135.999,-147.605"/>
<text text-anchor="middle" x="123.999" y="-150.605" font-family="Times New Roman,serif" font-size="10.00">labels</text>
<text text-anchor="middle" x="249.679" y="-180.958" font-family="Times New Roman,serif" font-size="10.00"> </text>
</g>
<!-- l12013 -->
<g id="node3" class="node"><title>l12013</title>
<polygon fill="none" stroke="black" points="186,-131.5 186,-148.5 244,-148.5 244,-131.5 186,-131.5"/>
<text text-anchor="start" x="195.5" y="-138.5" font-family="Times New Roman,serif" text-decoration="underline" font-size="10.00">l1201 :Lot</text>
<polygon fill="none" stroke="black" points="186,-103.5 186,-131.5 244,-131.5 244,-103.5 186,-103.5"/>
<text text-anchor="start" x="189" y="-120.5" font-family="Times New Roman,serif" font-size="10.00"> &#160;id = &quot;l1201&quot;</text>
<text text-anchor="start" x="189" y="-109.5" font-family="Times New Roman,serif" font-size="10.00"> &#160;items = 20.0</text>
</g>
<!-- s1&#45;&gt;l12013 -->
<g id="edge2" class="edge"><title>s1&#45;&gt;l12013</title>
<path fill="none" stroke="black" d="M284.258,-188.854C272.126,-178.107 257.065,-164.764 244.09,-153.27"/>
<text text-anchor="middle" x="236.09" y="-156.27" font-family="Times New Roman,serif" font-size="10.00">lots</text>
<text text-anchor="middle" x="273.758" y="-180.854" font-family="Times New Roman,serif" font-size="10.00">store</text>
</g>
<!-- l12024 -->
<g id="node4" class="node"><title>l12024</title>
<polygon fill="none" stroke="black" points="278,-131.5 278,-148.5 336,-148.5 336,-131.5 278,-131.5"/>
<text text-anchor="start" x="287.5" y="-138.5" font-family="Times New Roman,serif" text-decoration="underline" font-size="10.00">l1202 :Lot</text>
<polygon fill="none" stroke="black" points="278,-103.5 278,-131.5 336,-131.5 336,-103.5 278,-103.5"/>
<text text-anchor="start" x="281" y="-120.5" font-family="Times New Roman,serif" font-size="10.00"> &#160;id = &quot;l1202&quot;</text>
<text text-anchor="start" x="281" y="-109.5" font-family="Times New Roman,serif" font-size="10.00"> &#160;items = 30.0</text>
</g>
<!-- s1&#45;&gt;l12024 -->
<g id="edge3" class="edge"><title>s1&#45;&gt;l12024</title>
<path fill="none" stroke="black" d="M307,-188.854C307,-178.107 307,-164.764 307,-153.27"/>
<text text-anchor="middle" x="299" y="-156.27" font-family="Times New Roman,serif" font-size="10.00">lots</text>
<text text-anchor="middle" x="296.5" y="-180.854" font-family="Times New Roman,serif" font-size="10.00">store</text>
</g>
<!-- l12035 -->
<g id="node5" class="node"><title>l12035</title>
<polygon fill="none" stroke="black" points="370,-131.5 370,-148.5 428,-148.5 428,-131.5 370,-131.5"/>
<text text-anchor="start" x="379.5" y="-138.5" font-family="Times New Roman,serif" text-decoration="underline" font-size="10.00">l1203 :Lot</text>
<polygon fill="none" stroke="black" points="370,-103.5 370,-131.5 428,-131.5 428,-103.5 370,-103.5"/>
<text text-anchor="start" x="373" y="-120.5" font-family="Times New Roman,serif" font-size="10.00"> &#160;id = &quot;l1203&quot;</text>
<text text-anchor="start" x="373" y="-109.5" font-family="Times New Roman,serif" font-size="10.00"> &#160;items = 25.0</text>
</g>
<!-- s1&#45;&gt;l12035 -->
<g id="edge4" class="edge"><title>s1&#45;&gt;l12035</title>
<path fill="none" stroke="black" d="M329.742,-188.854C341.874,-178.107 356.935,-164.764 369.91,-153.27"/>
<text text-anchor="middle" x="361.91" y="-156.27" font-family="Times New Roman,serif" font-size="10.00">lots</text>
<text text-anchor="middle" x="319.242" y="-180.854" font-family="Times New Roman,serif" font-size="10.00">store</text>
</g>
<!-- hoodieXL6 -->
<g id="node6" class="node"><title>hoodieXL6</title>
<polygon fill="none" stroke="black" points="283,-43 283,-60 424,-60 424,-43 283,-43"/>
<text text-anchor="start" x="315.5" y="-50" font-family="Times New Roman,serif" text-decoration="underline" font-size="10.00">hoodieXL :Product</text>
<polygon fill="none" stroke="black" points="283,-4 283,-43 424,-43 424,-4 283,-4"/>
<text text-anchor="start" x="286" y="-32" font-family="Times New Roman,serif" font-size="10.00"> &#160;description = &quot;Hoody Black XL&quot;</text>
<text text-anchor="start" x="286" y="-21" font-family="Times New Roman,serif" font-size="10.00"> &#160;id = &quot;HoodieXL&quot;</text>
<text text-anchor="start" x="286" y="-10" font-family="Times New Roman,serif" font-size="10.00"> &#160;items = 75.0</text>
</g>
<!-- s1&#45;&gt;hoodieXL6 -->
<g id="edge5" class="edge"><title>s1&#45;&gt;hoodieXL6</title>
<path fill="none" stroke="black" d="M383.278,-195.48C407.066,-187.284 430.775,-174.125 445,-153 458.157,-133.462 455.682,-120.994 445,-100 437.742,-85.7356 425.867,-73.7904 413.022,-64.1247"/>
<text text-anchor="middle" x="394.522" y="-67.1247" font-family="Times New Roman,serif" font-size="10.00">products</text>
<text text-anchor="middle" x="393.778" y="-198.48" font-family="Times New Roman,serif" font-size="10.00">store</text>
</g>
<!-- l12013&#45;&gt;hoodieXL6 -->
<g id="edge6" class="edge"><title>l12013&#45;&gt;hoodieXL6</title>
<path fill="none" stroke="black" d="M252.345,-100.468C269.108,-89.2322 289.053,-75.8632 306.75,-64.0011"/>
<text text-anchor="middle" x="290.75" y="-67.0011" font-family="Times New Roman,serif" font-size="10.00">product</text>
<text text-anchor="middle" x="244.345" y="-92.4682" font-family="Times New Roman,serif" font-size="10.00">lots</text>
</g>
<!-- l12024&#45;&gt;hoodieXL6 -->
<g id="edge7" class="edge"><title>l12024&#45;&gt;hoodieXL6</title>
<path fill="none" stroke="black" d="M319.814,-99.7336C325.29,-88.7214 331.732,-75.7678 337.476,-64.2175"/>
<text text-anchor="middle" x="353.476" y="-67.2175" font-family="Times New Roman,serif" font-size="10.00">product</text>
<text text-anchor="middle" x="311.814" y="-91.7336" font-family="Times New Roman,serif" font-size="10.00">lots</text>
</g>
<!-- l12035&#45;&gt;hoodieXL6 -->
<g id="edge8" class="edge"><title>l12035&#45;&gt;hoodieXL6</title>
<path fill="none" stroke="black" d="M386.186,-99.7336C380.71,-88.7214 374.268,-75.7678 368.524,-64.2175"/>
<text text-anchor="middle" x="352.524" y="-67.2175" font-family="Times New Roman,serif" font-size="10.00">product</text>
<text text-anchor="middle" x="378.186" y="-91.7336" font-family="Times New Roman,serif" font-size="10.00">lots</text>
</g>
</g>
</svg>
